
<svg width="128" height="128" viewBox="0 0 128 128" fill="none" xmlns="http://www.w3.org/2000/svg">
<rect x="11.5" y="82.5" width="93" height="30" rx="15" fill="#C11528" stroke="#2E050A"/>
<path d="M0.5 115C0.5 108.096 6.09644 102.5 13 102.5H102C115.916 102.5 127.229 113.648 127.495 127.5H13C6.09644 127.5 0.5 121.904 0.5 115Z" fill="#9C1122" stroke="#2E050A"/>
<path d="M116.161 42.3088L106.145 36.4887L107.426 34.5142L117.442 40.3343L126.134 40.4004L119.019 42.1564L120.463 48.4334L116.161 42.3088Z" fill="#C85050" stroke="#CF7777"/>
<path d="M25.6111 82.0637L25.6672 82.5H26.1071H55.4788H56.0341L55.976 81.9478C54.3978 66.9258 54.2892 57.1942 55.8811 50.8388C56.6737 47.6747 57.8815 45.3755 59.5171 43.6787C61.1523 41.9825 63.2477 40.8543 65.8728 40.0861C67.8439 39.5092 69.9708 39.6364 72.0365 40.1111C84.0563 42.8735 93.2708 44.4575 99.9105 44.1204C103.236 43.9515 105.959 43.2994 108.076 42.038C110.206 40.7686 111.688 38.9027 112.556 36.3812C114.085 31.9414 111.593 27.3449 108.109 24.4968C85.5611 6.06235 62.6882 3.0172 46.5239 13.446C30.378 23.8628 21.1813 47.5652 25.6111 82.0637Z" fill="#E61930" stroke="#2E050A"/>
<ellipse cx="94" cy="27.5" rx="5" ry="5.5" fill="#2E050A"/>
</svg>
